<svg xmlns="http://www.w3.org/2000/svg" viewBox="0 0 64 64"><rect width="64" height="64" rx="14" fill="#0F4C3A"/><svg x="10" y="10" width="44" height="44" viewBox="0 0 120 120" fill="none" stroke="#FFFFFF" stroke-width="5" stroke-linecap="round" stroke-linejoin="round"><path d="M60 22 C50 14 34 16 30 28 C22 30 18 40 24 48 C20 56 28 64 38 62 C42 68 52 68 60 62"/><path d="M60 22 C70 14 86 16 90 28 C98 30 102 40 96 48 C100 56 92 64 82 62 C78 68 68 68 60 62"/><path d="M60 22 V62"/><path d="M60 62 V90"/><path d="M16 88 Q38 80 60 90 Q82 80 104 88"/><path d="M16 88 V98 Q38 90 60 100 Q82 90 104 98 V88"/></svg></svg>
